<?xml version="1.0" standalone="no"?>
<!DOCTYPE svg PUBLIC "-//W3C//DTD SVG 20010904//EN"
 "http://www.w3.org/TR/2001/REC-SVG-20010904/DTD/svg10.dtd">
<svg version="1.0" xmlns="http://www.w3.org/2000/svg"
 width="512.000000pt" height="512.000000pt" viewBox="0 0 512.000000 512.000000"
 preserveAspectRatio="xMidYMid meet">

<g transform="translate(0.000000,512.000000) scale(0.100000,-0.100000)"
fill="#000000" stroke="none">
<path d="M3700 4103 c-133 -41 -1442 -447 -1512 -469 l-48 -16 0 -948 0 -949
-65 30 c-274 129 -630 30 -756 -211 -21 -39 -24 -59 -24 -145 0 -91 3 -105 29
-154 15 -30 54 -79 85 -107 31 -29 63 -60 71 -69 100 -108 145 -146 212 -179
289 -143 665 -42 790 212 l33 67 3 872 2 871 123 41 c67 22 311 101 542 176
231 75 426 138 433 140 9 4 12 -97 12 -481 0 -459 -1 -486 -17 -478 -10 4 -56
21 -103 37 -75 27 -99 30 -195 31 -74 0 -131 -6 -174 -18 -149 -41 -267 -130
-323 -244 -30 -60 -33 -76 -33 -152 0 -74 4 -92 30 -144 17 -32 54 -82 84
-110 29 -28 68 -67 85 -86 86 -96 137 -139 198 -168 132 -62 259 -81 392 -57
180 32 324 128 391 260 l30 60 3 1133 c2 910 0 1132 -10 1132 -7 0 -42 -9 -78
-20 -36 -11 -68 -20 -72 -20 -5 0 -8 45 -8 100 0 55 -3 100 -7 99 -5 -1 -60
-17 -123 -36z"/>
</g>
</svg>
